<svg version="1.1" viewBox="0.0 0.0 226.36745406824147 189.7769028871391" fill="none" stroke="none" stroke-linecap="square" stroke-miterlimit="10" xmlns:xlink="http://www.w3.org/1999/xlink" xmlns="http://www.w3.org/2000/svg"><clipPath id="p.0"><path d="m0 0l226.36745 0l0 189.7769l-226.36745 0l0 -189.7769z" clip-rule="nonzero"/></clipPath><g clip-path="url(#p.0)"><path fill="#000000" fill-opacity="0.0" d="m0 0l226.36745 0l0 189.7769l-226.36745 0z" fill-rule="evenodd"/><path fill="#d9d9d9" d="m13.9921255 31.209974l0 0c0 -12.480766 10.11766 -22.598427 22.598423 -22.598427l0 0c5.993477 0 11.741474 2.3808985 15.9795 6.618926c4.2380295 4.2380257 6.618927 9.986025 6.618927 15.9795l0 0c0 12.480764 -10.1176605 22.598425 -22.598427 22.598425l0 0c-12.480764 0 -22.598423 -10.1176605 -22.598423 -22.598425z" fill-rule="evenodd"/><path stroke="#000000" stroke-width="1.0" stroke-linejoin="round" stroke-linecap="butt" d="m13.9921255 31.209974l0 0c0 -12.480766 10.11766 -22.598427 22.598423 -22.598427l0 0c5.993477 0 11.741474 2.3808985 15.9795 6.618926c4.2380295 4.2380257 6.618927 9.986025 6.618927 15.9795l0 0c0 12.480764 -10.1176605 22.598425 -22.598427 22.598425l0 0c-12.480764 0 -22.598423 -10.1176605 -22.598423 -22.598425z" fill-rule="evenodd"/><path fill="#000000" d="m39.001675 36.551846l0 1.578125l-8.828123 0q-0.015625 -0.59375 0.1875 -1.140625q0.34375 -0.90625 1.078125 -1.78125q0.7499981 -0.875 2.156248 -2.015625q2.171875 -1.7812481 2.9375 -2.828123q0.765625 -1.046875 0.765625 -1.96875q0 -0.984375 -0.703125 -1.640625q-0.6875 -0.671875 -1.8125 -0.671875q-1.1875 0 -1.90625 0.71875q-0.703125 0.703125 -0.703125 1.953125l-1.6874981 -0.171875q0.171875 -1.890625 1.296875 -2.875q1.1406231 -0.984375 3.031248 -0.984375q1.921875 0 3.046875 1.0625q1.125 1.0625 1.125 2.640625q0 0.796875 -0.328125 1.578125q-0.328125 0.78125 -1.09375 1.640625q-0.75 0.8437481 -2.53125 2.343748q-1.46875 1.234375 -1.890625 1.6875q-0.421875 0.4375 -0.6875 0.875l6.546875 0z" fill-rule="nonzero"/><path fill="#fce5cd" d="m168.82677 31.209974l0 0c0 -12.480766 10.1176605 -22.598427 22.598434 -22.598427l0 0c5.993469 0 11.74147 2.3808985 15.979492 6.618926c4.238037 4.2380257 6.618927 9.986025 6.618927 15.9795l0 0c0 12.480764 -10.1176605 22.598425 -22.59842 22.598425l0 0c-12.480774 0 -22.598434 -10.1176605 -22.598434 -22.598425z" fill-rule="evenodd"/><path stroke="#000000" stroke-width="1.0" stroke-linejoin="round" stroke-linecap="butt" d="m168.82677 31.209974l0 0c0 -12.480766 10.1176605 -22.598427 22.598434 -22.598427l0 0c5.993469 0 11.74147 2.3808985 15.979492 6.618926c4.238037 4.2380257 6.618927 9.986025 6.618927 15.9795l0 0c0 12.480764 -10.1176605 22.598425 -22.59842 22.598425l0 0c-12.480774 0 -22.598434 -10.1176605 -22.598434 -22.598425z" fill-rule="evenodd"/><path fill="#000000" d="m185.22694 34.59872l1.640625 -0.21875q0.28125 1.40625 0.953125 2.015625q0.6875 0.609375 1.65625 0.609375q1.15625 0 1.953125 -0.796875q0.796875 -0.796875 0.796875 -1.984375q0 -1.125 -0.734375 -1.859375q-0.734375 -0.7343731 -1.875 -0.7343731q-0.46875 0 -1.15625 0.171875l0.1875 -1.4375q0.15625 0.015625 0.265625 0.015625q1.046875 0 1.875 -0.546875q0.84375 -0.546875 0.84375 -1.671875q0 -0.90625 -0.609375 -1.5q-0.609375 -0.59375 -1.578125 -0.59375q-0.953125 0 -1.59375 0.609375q-0.640625 0.59375 -0.8125 1.796875l-1.640625 -0.296875q0.296875 -1.640625 1.359375 -2.546875q1.0625 -0.90625 2.65625 -0.90625q1.09375 0 2.0 0.46875q0.921875 0.46875 1.40625 1.28125q0.5 0.8125 0.5 1.71875q0 0.859375 -0.46875 1.578125q-0.46875 0.703125 -1.375 1.125q1.1875 0.28125 1.84375 1.1406231q0.65625 0.859375 0.65625 2.15625q0 1.734375 -1.28125 2.953125q-1.265625 1.21875 -3.21875 1.21875q-1.765625 0 -2.921875 -1.046875q-1.15625 -1.046875 -1.328125 -2.71875z" fill-rule="nonzero"/><path fill="#f4cccc" d="m13.9921255 159.0l0 0c0 -12.480759 10.11766 -22.59842 22.598423 -22.59842l0 0c5.993477 0 11.741474 2.38089 15.9795 6.618927c4.2380295 4.238022 6.618927 9.986023 6.618927 15.979492l0 0c0 12.480759 -10.1176605 22.59842 -22.598427 22.59842l0 0c-12.480764 0 -22.598423 -10.1176605 -22.598423 -22.59842z" fill-rule="evenodd"/><path stroke="#000000" stroke-width="1.0" stroke-linejoin="round" stroke-linecap="butt" d="m13.9921255 159.0l0 0c0 -12.480759 10.11766 -22.59842 22.598423 -22.59842l0 0c5.993477 0 11.741474 2.38089 15.9795 6.618927c4.2380295 4.238022 6.618927 9.986023 6.618927 15.979492l0 0c0 12.480759 -10.1176605 22.59842 -22.598427 22.59842l0 0c-12.480764 0 -22.598423 -10.1176605 -22.598423 -22.59842z" fill-rule="evenodd"/><path fill="#000000" d="m35.6423 165.92l0 -3.203125l-5.796873 0l0 -1.5l6.093748 -8.65625l1.34375 0l0 8.65625l1.796875 0l0 1.5l-1.796875 0l0 3.203125l-1.640625 0zm0 -4.703125l0 -6.015625l-4.187498 6.015625l4.187498 0z" fill-rule="nonzero"/><path fill="#000000" fill-opacity="0.0" d="m36.59055 136.40158l0 -82.58269" fill-rule="evenodd"/><path stroke="#000000" stroke-width="2.0" stroke-linejoin="round" stroke-linecap="butt" d="m36.59055 136.40158l0 -82.58269" fill-rule="evenodd"/><path fill="#000000" fill-opacity="0.0" d="m59.188976 31.209974l109.63779 0" fill-rule="evenodd"/><path stroke="#000000" stroke-width="2.0" stroke-linejoin="round" stroke-linecap="butt" d="m59.188976 31.209974l109.63779 0" fill-rule="evenodd"/><path fill="#ffffff" d="m15.582677 108.90026l0 -27.590553l42.01575 0l0 27.590553z" fill-rule="evenodd"/><path fill="#000000" d="m40.92455 90.509636l1.578125 0l0 8.828125q-0.59375 0.015625 -1.140625 -0.1875q-0.90625 -0.34375 -1.78125 -1.078125q-0.875 -0.75 -2.015625 -2.15625q-1.78125 -2.171875 -2.828125 -2.9375q-1.046875 -0.765625 -1.96875 -0.765625q-0.9843731 0 -1.6406231 0.703125q-0.671875 0.6875 -0.671875 1.8125q0 1.1875 0.71875 1.90625q0.703125 0.703125 1.9531231 0.703125l-0.171875 1.6875q-1.8906231 -0.171875 -2.874998 -1.296875q-0.984375 -1.140625 -0.984375 -3.03125q0 -1.921875 1.0625 -3.046875q1.0625 -1.125 2.640623 -1.125q0.796875 0 1.578125 0.328125q0.78125 0.328125 1.640625 1.09375q0.84375 0.75 2.34375 2.53125q1.234375 1.46875 1.6875 1.890625q0.4375 0.421875 0.875 0.6875l0 -6.546875z" fill-rule="nonzero"/><path fill="#ffffff" d="m100.2126 10.2021l27.590546 0l0 42.015747l-27.590546 0z" fill-rule="evenodd"/><path fill="#000000" d="m116.165726 37.122097l-1.640625 0l0 -10.453125q-0.59375 0.5625 -1.5625 1.140625q-0.953125 0.5625 -1.71875 0.84375l0 -1.59375q1.375 -0.640625 2.40625 -1.5625q1.03125 -0.921875 1.453125 -1.78125l1.0625 0l0 13.40625z" fill-rule="nonzero"/><path fill="#000000" fill-opacity="0.0" d="m52.57005 143.02051l122.866135 -95.84253" fill-rule="evenodd"/><path stroke="#000000" stroke-width="2.0" stroke-linejoin="round" stroke-linecap="butt" d="m52.57005 143.02051l122.866135 -95.84253" fill-rule="evenodd"/><path fill="#ffffff" d="m92.96264 90.002625l19.496063 -19.496063l29.700783 29.70079l-19.496063 19.496063z" fill-rule="evenodd"/><path fill="#000000" d="m123.27851 97.75738l-1.1600952 1.1600952l-7.3914795 -7.3914795q-0.022094727 0.81759644 -0.29830933 1.9113998q-0.2762146 1.0717087 -0.618721 1.811966l-1.1269455 -1.1269531q0.5192795 -1.4252625 0.59661865 -2.8063354q0.07733917 -1.3810654 -0.23201752 -2.2870483l0.751297 -0.751297l9.479652 9.479652z" fill-rule="nonzero"/></g></svg>